<svg width="6" height="6" viewBox="0 0 6 6" fill="none" xmlns="http://www.w3.org/2000/svg">
<path d="M3 6C3.79557 5.99975 4.55849 5.68355 5.12105 5.12091C5.6836 4.55827 5.99975 3.79523 6 2.99953C5.99975 2.20393 5.68356 1.44098 5.12098 0.878485C4.55839 0.315994 3.79549 -4.01931e-08 3 0C2.20451 -4.01931e-08 1.44158 0.315994 0.879 0.878485C0.316418 1.44098 0.000252856 2.20393 0 2.99953C0.000252763 3.79523 0.316399 4.55827 0.878954 5.12091C1.44151 5.68355 2.20443 5.99975 3 6ZM1.70024 3.76919L2.80928 2.91082V1.70435C2.80928 1.65376 2.82937 1.60523 2.86513 1.56946C2.9009 1.53369 2.94942 1.5136 3 1.5136C3.05058 1.5136 3.09908 1.53369 3.13484 1.56946C3.17061 1.60523 3.19072 1.65376 3.19072 1.70435V3.00428C3.19072 3.00428 3.19072 3.01193 3.19072 3.01574C3.19072 3.01956 3.19072 3.02909 3.19072 3.03577C3.18957 3.0416 3.18798 3.04734 3.18595 3.05293C3.18649 3.05895 3.18649 3.06504 3.18595 3.07106L3.17831 3.08823L3.16974 3.10443L3.15924 3.11971C3.15562 3.1246 3.15147 3.12907 3.14686 3.13305C3.14258 3.13828 3.13777 3.14307 3.13254 3.14735L3.1249 3.15498L1.9415 4.07536C1.90163 4.10623 1.85115 4.12003 1.80112 4.11378C1.75108 4.10752 1.70554 4.08171 1.67449 4.04197C1.65789 4.02254 1.64537 3.99997 1.63766 3.97561C1.62995 3.95124 1.62723 3.92556 1.62963 3.90012C1.63203 3.87467 1.63952 3.84998 1.65165 3.82749C1.66378 3.805 1.6803 3.78517 1.70024 3.76919Z" fill="white"/>
</svg>
