<svg width="15" height="19" viewBox="0 0 15 19" fill="none" xmlns="http://www.w3.org/2000/svg">
<path d="M8.27281 16.5118L13.5616 13.5287M5.37497 5.18841L11.1064 14.9135M7.7599 3.45672C7.84684 3.60654 7.79036 3.80093 7.63375 3.89089L2.88403 6.61929C2.72742 6.70925 2.52999 6.66072 2.44305 6.5109C0.482906 3.13299 1.75827 1.84033 2.8976 1.18586C4.03692 0.531397 5.79649 0.0731724 7.7599 3.45672ZM7.91732 3.728L13.4807 13.3154C13.5484 13.4321 13.5813 13.5658 13.5741 13.7005C13.4824 15.3996 13.248 16.8884 13.0925 17.7341C13.0187 18.1355 12.6122 18.3712 12.2249 18.2366C11.4072 17.9524 9.98581 17.4157 8.4526 16.6425C8.33163 16.5815 8.23153 16.4862 8.16373 16.3693L2.60047 6.78218L7.91732 3.728Z" stroke="#252525" stroke-linecap="round"/>
</svg>

