<svg width="6" height="8" viewBox="0 0 6 8" fill="none" xmlns="http://www.w3.org/2000/svg">
<path d="M1.34567 2.03565C1.68254 1.54395 2.00049 1.0965 2.10694 0.54579C2.10694 0.54579 2.10694 0.54579 2.10694 0.534317C1.99766 0.405519 1.8724 0.295115 1.73507 0.206515C1.72174 0.196179 1.70623 0.189918 1.6901 0.188346C1.67397 0.186775 1.65774 0.189948 1.64303 0.197554C1.62832 0.205159 1.61565 0.216936 1.60622 0.231726C1.59678 0.246516 1.59093 0.26381 1.58924 0.28191C1.57348 0.385858 1.55252 0.488731 1.5265 0.590043C1.48088 0.758142 1.40985 0.916157 1.31652 1.05716C1.14152 1.32104 0.92569 1.5587 0.733193 1.80947C0.275285 2.4077 -0.0761572 3.1469 0.0142578 3.95984C0.0409373 4.2027 0.107718 4.43782 0.211143 4.65314C0.322744 3.8941 0.592026 3.17534 0.997155 2.55521C1.10799 2.3782 1.22901 2.20447 1.34567 2.03565Z" fill="white"/>
<path d="M5.42457 2.33067C5.42078 2.32929 5.41669 2.32929 5.4129 2.33067C5.41378 2.44127 5.40152 2.55152 5.37644 2.65847C5.34555 2.76025 5.29586 2.85353 5.23061 2.93219C5.17612 3.00332 5.10912 3.06102 5.03383 3.10164C4.95854 3.14226 4.87658 3.16492 4.79312 3.1682C4.6624 3.16668 4.53637 3.11328 4.4373 3.01741C4.13543 2.7355 4.07563 2.25364 3.98813 1.85044C3.89894 1.4444 3.72733 1.06709 3.48673 0.748045C3.24612 0.429002 2.94305 0.176896 2.60128 0.0114731C2.58714 0.00396382 2.5717 4.66994e-05 2.55606 1.19787e-07C2.52765 -4.41357e-05 2.50032 0.0121758 2.47969 0.0341365C2.45907 0.0560973 2.44672 0.0861217 2.44523 0.118009C2.43405 0.286359 2.4141 0.453825 2.38545 0.619545C2.22504 1.45544 1.65631 2.07335 1.23048 2.75026C0.743409 3.52878 0.402154 4.47941 0.489653 5.44642C0.597567 6.64126 1.35005 7.51485 2.27024 7.90494C2.09915 7.7655 1.95625 7.58695 1.85094 7.38102C1.74563 7.17509 1.68029 6.94644 1.65922 6.7101C1.63157 6.14103 1.78223 5.57906 2.08503 5.1219C2.32711 4.72362 2.65524 4.35976 2.74857 3.86806C2.76527 3.77061 2.77647 3.67208 2.78211 3.57304C2.78238 3.56116 2.78528 3.54955 2.79051 3.53923C2.79574 3.5289 2.80314 3.52019 2.81208 3.51387C2.82103 3.50754 2.83123 3.5038 2.84178 3.50297C2.85232 3.50214 2.8629 3.50425 2.87254 3.50912C3.06956 3.60945 3.2434 3.75932 3.3807 3.94716C3.518 4.13501 3.61507 4.3558 3.66439 4.5925C3.71397 4.82852 3.74897 5.11371 3.92251 5.27925C4.16167 5.50707 4.4781 5.26286 4.47956 4.93342V4.899L4.4927 4.87769C4.52508 4.93546 4.55385 4.9957 4.57875 5.05798V5.06617C4.72347 5.41155 4.80512 5.78603 4.81889 6.16748C4.83267 6.54892 4.7783 6.92961 4.65896 7.28703C4.60299 7.44133 4.52625 7.58505 4.43146 7.71317C4.3498 7.82226 4.25563 7.9187 4.15144 8C4.60533 7.84922 5.01058 7.55374 5.31809 7.14935C5.4829 6.93212 5.61719 6.68781 5.71624 6.42491C5.80385 6.19069 5.87122 5.94754 5.91747 5.69883C5.96387 5.44734 5.99072 5.19178 5.99768 4.93505C6.00519 4.67664 5.99447 4.41795 5.9656 4.16144C5.93735 3.90598 5.89149 3.65336 5.82849 3.40586C5.76698 3.16196 5.68799 2.92407 5.59227 2.69453C5.56602 2.63389 5.5383 2.56997 5.51059 2.50932L5.46538 2.41262C5.45727 2.38227 5.44336 2.3543 5.42457 2.33067Z" fill="white"/>
</svg>
