<svg width="37" height="29" viewBox="0 0 37 29" fill="none" xmlns="http://www.w3.org/2000/svg">
<path d="M20.0275 16.4862C20.0311 15.73 20.1367 14.9774 20.3421 14.2473H19.0984C18.8894 14.2463 18.685 14.1884 18.5089 14.0803C18.3328 13.9722 18.1922 13.8184 18.1036 13.6368L17.1306 11.6365L14.7824 16.3178C14.6965 16.493 14.5613 16.6418 14.3919 16.7472C14.2226 16.8526 14.0258 16.9105 13.824 16.9143C13.6216 16.92 13.4216 16.8719 13.246 16.7752C13.0704 16.6786 12.9262 16.5373 12.8292 16.3669L10.8611 12.8577L10.1296 13.8613C10.0289 14.0028 9.89359 14.1185 9.73541 14.198C9.57724 14.2775 9.40106 14.3186 9.22247 14.3175H6.7499C6.45887 14.3175 6.17966 14.2066 5.97387 14.0092C5.76808 13.8117 5.65257 13.544 5.65257 13.2648C5.65257 12.9856 5.76808 12.7178 5.97387 12.5204C6.17966 12.3229 6.45887 12.212 6.7499 12.212H8.65183L10.0565 10.2469C10.1639 10.0989 10.3091 9.97994 10.4782 9.90129C10.6473 9.82264 10.8345 9.78697 11.0221 9.79769C11.2098 9.80558 11.3922 9.86018 11.5513 9.95617C11.7103 10.0521 11.8405 10.1862 11.9292 10.3451L13.729 13.5315L16.1429 8.70282C16.2329 8.52325 16.3742 8.37185 16.5503 8.26625C16.7264 8.16065 16.9303 8.10517 17.1379 8.10625C17.346 8.10747 17.5497 8.16467 17.7255 8.27137C17.9014 8.37807 18.0426 8.52998 18.1329 8.70983L19.7862 12.1278H21.2494C22.0448 10.7931 23.1938 9.68382 24.5799 8.91227C25.9661 8.14073 27.5401 7.73435 29.1427 7.73428C31.1719 7.73244 33.143 8.38499 34.7392 9.58713C34.7392 9.39763 34.7392 9.20813 34.7392 9.01864C34.7394 8.53712 34.7026 8.05624 34.6293 7.57988C34.5854 7.30616 34.5269 7.03946 34.4611 6.77277C34.0626 5.30836 33.2882 3.96304 32.2084 2.85966C31.1286 1.75628 29.7778 0.929991 28.2795 0.456213C27.3357 0.155218 26.3478 0.00118506 25.3533 0C24.0973 0.00410486 22.8546 0.24687 21.6969 0.714262C20.5392 1.18165 19.4895 1.86441 18.6084 2.72314L17.8256 3.48114L17.0429 2.72314C16.1618 1.86441 15.112 1.18165 13.9544 0.714262C12.7967 0.24687 11.5538 0.00410486 10.2978 0C9.30329 0.00118506 8.31537 0.155218 7.37161 0.456213C5.90182 0.912436 4.5737 1.7128 3.5072 2.785C2.4407 3.85719 1.66954 5.16742 1.26324 6.59731C1.04154 7.45135 0.928572 8.32802 0.926758 9.20815C1.00475 11.7548 1.80658 14.2327 3.24573 16.3739C4.72025 18.6384 6.51229 20.6977 8.57146 22.494C11.4112 24.9695 14.5155 27.1503 17.8329 29C20.3311 27.5958 22.7198 26.0196 24.9802 24.2836C23.4855 23.5485 22.2318 22.431 21.3578 21.0549C20.4837 19.6788 20.0233 18.0977 20.0275 16.4862Z" fill="#FFDD03"/>
<path d="M34.0223 11.7979C33.3818 11.1804 32.6203 10.6907 31.7815 10.357C30.9428 10.0233 30.0433 9.85232 29.1354 9.85384C28.2275 9.85309 27.3285 10.0245 26.4899 10.3581C25.6513 10.6917 24.8895 11.181 24.2486 11.7979C23.6059 12.413 23.0961 13.1438 22.7484 13.9483C22.4006 14.7528 22.2218 15.6153 22.2222 16.4862C22.2213 17.3583 22.3997 18.2219 22.7475 19.0277C23.0952 19.8334 23.6054 20.5654 24.2486 21.1815C24.8899 21.7975 25.6518 22.2857 26.4904 22.6181C27.3291 22.9506 28.2279 23.1206 29.1354 23.1186C30.0429 23.1214 30.942 22.9517 31.7808 22.6192C32.6196 22.2867 33.3815 21.7981 34.0223 21.1815C34.6668 20.5663 35.1777 19.8345 35.5256 19.0286C35.8734 18.2226 36.0512 17.3585 36.0487 16.4862C36.0507 15.6151 35.8725 14.7521 35.5247 13.9474C35.1768 13.1427 34.6663 12.4121 34.0223 11.7979ZM25.2436 16.5283C25.4365 16.3193 25.7076 16.1917 25.998 16.1733C26.2884 16.1549 26.5745 16.2471 26.7944 16.4301L27.7894 17.2723L31.3813 13.5245C31.4788 13.4226 31.5962 13.3401 31.7269 13.2818C31.8576 13.2235 31.9992 13.1905 32.1432 13.1846C32.2872 13.1787 32.4309 13.2002 32.5663 13.2476C32.7017 13.2951 32.8261 13.3677 32.9323 13.4613C33.0384 13.5548 33.1244 13.6675 33.1852 13.7929C33.2459 13.9183 33.2803 14.054 33.2864 14.1922C33.2925 14.3303 33.2702 14.4683 33.2207 14.5982C33.1712 14.7281 33.0955 14.8474 32.998 14.9492L28.6819 19.455C28.4888 19.6581 28.22 19.78 27.9339 19.7945C27.6478 19.8089 27.3671 19.7147 27.1529 19.5322L25.346 18.0162C25.1291 17.8302 24.9974 17.5696 24.9796 17.291C24.9618 17.0124 25.0594 16.7384 25.2509 16.5283H25.2436Z" fill="#FFDD03"/>
</svg>
