<svg width="26" height="28" viewBox="0 0 26 28" fill="none" xmlns="http://www.w3.org/2000/svg">
<path d="M23.6665 8.69924L14.7516 0.680693C14.3371 0.30483 13.8294 0.0681575 13.2912 0H12.7537C12.2113 0.066749 11.699 0.303431 11.2805 0.680693L2.34034 8.69924C1.876 9.11537 1.50145 9.63544 1.24268 10.2232C0.983903 10.8109 0.847045 11.4523 0.841801 12.1027V25.104C0.841168 25.4732 0.908542 25.839 1.03985 26.1801C1.17115 26.5213 1.36392 26.831 1.60697 27.0916C1.84898 27.3532 2.13662 27.5608 2.45348 27.7021C2.77035 27.8435 3.11013 27.9159 3.45312 27.9152H8.51122C8.67891 27.9152 8.83968 27.8435 8.95825 27.7159C9.07683 27.5882 9.14349 27.4151 9.14349 27.2345V22.1838C9.14912 21.0224 9.56249 19.9064 10.3006 19.0594C10.6664 18.6341 11.1093 18.2939 11.6018 18.0597C12.0944 17.8256 12.6263 17.7025 13.1647 17.698H13.2848C14.3041 17.7316 15.2727 18.1847 15.9909 18.9641C16.3641 19.3637 16.6602 19.839 16.862 20.3623C17.0638 20.8857 17.1674 21.4469 17.1669 22.0136V27.2345C17.1669 27.4151 17.2335 27.5882 17.3521 27.7159C17.4707 27.8435 17.6314 27.9152 17.7991 27.9152H22.5727C22.9158 27.9167 23.2557 27.8446 23.5727 27.7032C23.8896 27.5618 24.1773 27.3539 24.4189 27.0916C24.6617 26.8323 24.8545 26.5237 24.9859 26.1837C25.1172 25.8437 25.1844 25.479 25.1839 25.1108V12.1027C25.1759 11.4508 25.0361 10.8085 24.7741 10.2207C24.512 9.63295 24.134 9.11373 23.6665 8.69924Z" fill="#FFDD03"/>
</svg>
