<svg width="40" height="34" viewBox="0 0 40 34" fill="none" xmlns="http://www.w3.org/2000/svg">
<path d="M19.7463 0C17.8515 0 16.3122 1.36266 16.3122 3.04C16.3122 4.45312 17.4122 5.63172 18.8878 5.97312V8.36H11.1878C7.38476 8.36 4.29268 11.0972 4.29268 14.4637V17.48H0V26.6H4.29268V33.44H35.2V26.6H39.4927V17.48H35.2V14.4637C35.2 11.0972 32.1079 8.36 28.3049 8.36H20.6049V5.97312C22.0838 5.63172 23.1805 4.45312 23.1805 3.04C23.1805 1.36266 21.6412 0 19.7463 0ZM19.7463 1.52C20.6921 1.52 21.4634 2.20281 21.4634 3.04C21.4634 3.87719 20.6921 4.56 19.7463 4.56C18.8006 4.56 18.0293 3.87719 18.0293 3.04C18.0293 2.20281 18.8006 1.52 19.7463 1.52ZM11.1878 9.88H28.3049C31.1588 9.88 33.4829 11.9373 33.4829 14.4637V31.92H28.3317V25.84H11.161V31.92H6.00976V14.4637C6.00976 11.9373 8.33384 9.88 11.1878 9.88ZM14.1659 14.44C12.0363 14.44 10.3024 15.9748 10.3024 17.86C10.3024 19.7452 12.0363 21.28 14.1659 21.28C16.2954 21.28 18.0293 19.7452 18.0293 17.86C18.0293 15.9748 16.2954 14.44 14.1659 14.44ZM25.3268 14.44C23.1973 14.44 21.4634 15.9748 21.4634 17.86C21.4634 19.7452 23.1973 21.28 25.3268 21.28C27.4564 21.28 29.1902 19.7452 29.1902 17.86C29.1902 15.9748 27.4564 14.44 25.3268 14.44ZM14.1659 15.96C15.3497 15.96 16.3122 16.812 16.3122 17.86C16.3122 18.908 15.3497 19.76 14.1659 19.76C12.982 19.76 12.0195 18.908 12.0195 17.86C12.0195 16.812 12.982 15.96 14.1659 15.96ZM25.3268 15.96C26.5107 15.96 27.4732 16.812 27.4732 17.86C27.4732 18.908 26.5107 19.76 25.3268 19.76C24.143 19.76 23.1805 18.908 23.1805 17.86C23.1805 16.812 24.143 15.96 25.3268 15.96ZM1.71707 19H4.29268V25.08H1.71707V19ZM35.2 19H37.7756V25.08H35.2V19ZM12.878 27.36H16.3122V31.92H12.878V27.36ZM18.0293 27.36H21.4634V31.92H18.0293V27.36ZM23.1805 27.36H26.6146V31.92H23.1805V27.36Z" fill="white"/>
</svg>
