<svg width="23" height="24" viewBox="0 0 23 24" fill="none" xmlns="http://www.w3.org/2000/svg">
<path d="M19.6246 19.7036C19.0988 19.8257 18.5586 19.8888 18.016 19.8916C16.2746 19.8916 14.6045 19.2592 13.3731 18.1333C12.1417 17.0074 11.4499 15.4804 11.4499 13.8882C11.4492 13.0997 11.6186 12.3188 11.9483 11.5901C12.2781 10.8615 12.7617 10.1994 13.3715 9.64177C13.9814 9.08418 14.7056 8.64204 15.5025 8.34056C16.2995 8.03909 17.1536 7.88422 18.016 7.88485C18.5588 7.88526 19.0993 7.94845 19.6246 8.07292V4.28283C19.6259 3.78611 19.4115 3.30922 19.0286 2.95678C18.8385 2.78216 18.6125 2.64369 18.3636 2.54934C18.1146 2.45499 17.8477 2.40662 17.5783 2.40707H16.0805C16.0805 2.40707 16.0805 2.40704 16.0805 2.4408V4.33587C16.0708 4.81633 15.8534 5.27373 15.4759 5.60806C15.0983 5.94239 14.5913 6.12644 14.0658 6.11998H5.74864C5.48822 6.12381 5.22948 6.08073 4.98728 5.99313C4.74508 5.90554 4.52413 5.77515 4.33704 5.60947C4.14995 5.44379 4.00042 5.24609 3.89694 5.02756C3.79345 4.80903 3.73805 4.57397 3.73393 4.33587V2.4408C3.73393 2.4408 3.73393 2.44082 3.73393 2.40707H2.05154C1.78198 2.40609 1.51486 2.4542 1.26584 2.54857C1.01683 2.64295 0.790923 2.78172 0.601183 2.95678C0.216392 3.30843 0.000180532 3.78541 0 4.28283V22.1242C0.000180532 22.6216 0.216392 23.0986 0.601183 23.4503C0.790923 23.6253 1.01683 23.7641 1.26584 23.8585C1.51486 23.9529 1.78198 24.001 2.05154 24H17.5677C17.8372 24.0004 18.1041 23.9521 18.353 23.8577C18.6019 23.7634 18.828 23.6249 19.0181 23.4503C19.4009 23.0978 19.6153 22.6209 19.6141 22.1242L19.6246 19.7036ZM2.80569 7.88485H10.7801C10.9899 7.88485 11.1911 7.96105 11.3394 8.0967C11.4878 8.23234 11.5712 8.41632 11.5712 8.60815C11.5712 8.79998 11.4878 8.98396 11.3394 9.1196C11.1911 9.25525 10.9899 9.33145 10.7801 9.33145H2.80569C2.59588 9.33145 2.39472 9.25525 2.24636 9.1196C2.098 8.98396 2.01459 8.79998 2.01459 8.60815C2.01873 8.41884 2.10398 8.23859 2.25189 8.10606C2.39981 7.97352 2.59859 7.89929 2.80569 7.89933V7.88485ZM2.80569 12.7454H6.79289C7.0027 12.7454 7.20399 12.8217 7.35236 12.9573C7.50072 13.093 7.58399 13.2769 7.58399 13.4687C7.58399 13.6605 7.50072 13.8445 7.35236 13.9802C7.20399 14.1158 7.0027 14.192 6.79289 14.192H2.80569C2.59588 14.192 2.39472 14.1158 2.24636 13.9802C2.098 13.8445 2.01459 13.6605 2.01459 13.4687C2.01873 13.2794 2.10398 13.0991 2.25189 12.9666C2.39981 12.8341 2.59859 12.7598 2.80569 12.7599V12.7454ZM10.7801 19.0526H2.80569C2.59588 19.0526 2.39472 18.9764 2.24636 18.8408C2.098 18.7051 2.01459 18.5211 2.01459 18.3293C2.01459 18.1375 2.098 17.9535 2.24636 17.8179C2.39472 17.6822 2.59588 17.606 2.80569 17.606H10.7801C10.9899 17.606 11.1911 17.6822 11.3394 17.8179C11.4878 17.9535 11.5712 18.1375 11.5712 18.3293C11.5733 18.4255 11.5544 18.5211 11.5156 18.6106C11.4768 18.7 11.4188 18.7814 11.3451 18.8501C11.2714 18.9188 11.1836 18.9734 11.0865 19.0106C10.9895 19.0479 10.8853 19.0671 10.7801 19.0671V19.0526Z" fill="white"/>
<path d="M6.09668 1.86217C5.9061 1.85015 5.71806 1.90713 5.57301 2.0208C5.42797 2.13447 5.33757 2.29571 5.32141 2.46974V4.36475C5.33083 4.46158 5.38142 4.55122 5.46228 4.61433C5.54314 4.67744 5.64786 4.70902 5.75392 4.70233H14.0711C14.1771 4.70902 14.2819 4.67744 14.3627 4.61433C14.4436 4.55122 14.4942 4.46158 14.5036 4.36475V2.46974C14.4874 2.29571 14.397 2.13447 14.252 2.0208C14.1069 1.90713 13.9188 1.85015 13.7282 1.86217C13.5368 1.87413 13.348 1.81651 13.2028 1.70183C13.0577 1.58714 12.9678 1.42466 12.9529 1.24976V0.338399C12.9448 0.241988 12.8954 0.152401 12.8154 0.0891759C12.7354 0.0259511 12.6313 -0.00576292 12.5258 0.000882518H7.29918C7.19311 -0.00581117 7.08839 0.0257705 7.00753 0.0888816C6.92667 0.151993 6.87608 0.241576 6.86667 0.338399V1.24976C6.85315 1.42425 6.76457 1.58673 6.62022 1.70153C6.47587 1.81633 6.28756 1.87409 6.09668 1.86217Z" fill="white"/>
<path d="M21.5391 17.1238C22.0033 16.7018 22.3716 16.1999 22.6223 15.647C22.8731 15.0941 23.0014 14.5012 23 13.9027C23.0018 13.3034 22.8736 12.7097 22.6228 12.156C22.3721 11.6022 22.0037 11.0995 21.5391 10.6768C21.0771 10.2532 20.5279 9.91748 19.9232 9.68905C19.3185 9.46062 18.6703 9.344 18.016 9.34594C17.3619 9.34453 16.7139 9.46135 16.1092 9.68975C15.5046 9.91815 14.9553 10.2536 14.493 10.6768C14.0293 11.1002 13.6615 11.603 13.4108 12.1566C13.1601 12.7102 13.0314 13.3035 13.0321 13.9027C13.0318 14.5011 13.1607 15.0936 13.4114 15.6464C13.6621 16.1991 14.0297 16.7012 14.493 17.1238C14.9551 17.5477 15.5041 17.8838 16.1087 18.1131C16.7133 18.3423 17.3615 18.46 18.016 18.4595C18.6707 18.4606 19.319 18.3431 19.9236 18.1138C20.5283 17.8846 21.0774 17.5481 21.5391 17.1238ZM20.8377 12.7069L17.7259 15.8026C17.5867 15.9421 17.393 16.0259 17.1867 16.0358C16.9804 16.0457 16.7781 15.981 16.6236 15.8556L15.3262 14.8141C15.2472 14.7518 15.1826 14.6758 15.1361 14.5905C15.0895 14.5052 15.0619 14.4122 15.0551 14.3171C15.0482 14.2219 15.0621 14.1265 15.096 14.0363C15.1299 13.9461 15.1831 13.863 15.2525 13.7918C15.3906 13.6485 15.5851 13.5609 15.7936 13.5483C16.0021 13.5356 16.2076 13.5989 16.3652 13.7243L17.0825 14.303L19.672 11.728C19.7423 11.658 19.8271 11.6013 19.9213 11.5613C20.0156 11.5212 20.1175 11.4985 20.2213 11.4945C20.3252 11.4904 20.4288 11.5052 20.5264 11.5378C20.624 11.5704 20.7137 11.6203 20.7902 11.6846C20.8667 11.7489 20.9287 11.8263 20.9725 11.9125C21.0163 11.9986 21.0411 12.0918 21.0455 12.1867C21.0499 12.2817 21.0338 12.3765 20.9981 12.4657C20.9625 12.5549 20.908 12.6369 20.8377 12.7069Z" fill="white"/>
</svg>
