<svg width="15" height="15" viewBox="0 0 15 15" fill="none" xmlns="http://www.w3.org/2000/svg">
<path d="M13.9365 4.65473L11.0974 3.91012C10.7463 3.8168 10.4425 3.58789 10.2476 3.26984L8.68986 0.687118C8.56515 0.475148 8.38988 0.300442 8.18104 0.180035C7.97221 0.0596272 7.73695 -0.00237442 7.49826 6.95531e-05C7.26015 -0.00175168 7.02568 0.0605461 6.8175 0.180924C6.60932 0.301302 6.43452 0.475674 6.31011 0.687118L4.74891 3.26984C4.55615 3.58842 4.25321 3.81766 3.9027 3.91012L1.06355 4.65473C0.832598 4.7151 0.620124 4.83558 0.446121 5.00487C0.272117 5.17416 0.142301 5.38671 0.0687642 5.62257C-0.00477253 5.85844 -0.0196471 6.10989 0.0256739 6.35334C0.0709948 6.59679 0.174968 6.82427 0.327812 7.01443L2.20338 9.35614C2.43526 9.64527 2.55148 10.0162 2.52803 10.3921L2.33113 13.4353C2.31839 13.6354 2.34515 13.8361 2.40981 14.0251C2.47446 14.214 2.57564 14.3871 2.70705 14.5338C2.83847 14.6804 2.99735 14.7974 3.17388 14.8776C3.35041 14.9578 3.54087 14.9995 3.73346 15C3.9132 14.9999 4.09132 14.9645 4.25847 14.8957L6.9767 13.759C7.14287 13.6909 7.31971 13.6556 7.49826 13.6547C7.67796 13.6552 7.856 13.6906 8.02327 13.759L10.7416 14.8957C10.9087 14.9645 11.0869 14.9999 11.2666 15C11.4592 14.9995 11.6496 14.9578 11.8261 14.8776C12.0026 14.7974 12.1615 14.6804 12.2929 14.5338C12.4243 14.3871 12.5255 14.214 12.5902 14.0251C12.6548 13.8361 12.6816 13.6354 12.6688 13.4353L12.472 10.3921C12.4486 10.0162 12.5648 9.64527 12.7967 9.35614L14.6722 7.01443C14.825 6.82427 14.929 6.59679 14.9743 6.35334C15.0196 6.10989 15.0048 5.85844 14.9313 5.62257C14.8578 5.38671 14.7279 5.17416 14.5539 5.00487C14.3798 4.83558 14.1675 4.7151 13.9365 4.65473Z" fill="white"/>
</svg>
