<svg width="38" height="28" viewBox="0 0 38 28" fill="none" xmlns="http://www.w3.org/2000/svg">
<path d="M22.0384 10.2085L14.3086 16.1739L16.297 17.7084L24.0267 11.743L22.0384 10.2085Z" fill="#FFDD03"/>
<path d="M14.6756 26.5134C14.745 26.4623 14.8 26.4009 14.8375 26.3328C14.875 26.2647 14.894 26.1914 14.8934 26.1174C14.894 26.0434 14.875 25.9701 14.8375 25.9019C14.8 25.8338 14.745 25.7724 14.6756 25.7213L3.83542 17.3501C3.76866 17.2975 3.68886 17.256 3.60063 17.228C3.51241 17.2 3.41763 17.1862 3.32225 17.1873C3.22688 17.1862 3.13227 17.2 3.04404 17.228C2.95582 17.256 2.87584 17.2975 2.80908 17.3501L1.09383 18.6739C1.0257 18.7254 0.971846 18.7871 0.935589 18.8551C0.899333 18.9232 0.881399 18.9963 0.8829 19.0699C0.881399 19.1435 0.899333 19.2166 0.935589 19.2847C0.971846 19.3527 1.0257 19.4144 1.09383 19.466L11.9409 27.8372C12.0077 27.8897 12.0876 27.9313 12.1759 27.9593C12.2641 27.9873 12.3587 28.0011 12.4541 27.9999C12.6459 27.9987 12.8297 27.9404 12.9672 27.8372L14.6756 26.5134Z" fill="#FFDD03"/>
<path d="M21.5648 24.3433C21.5635 24.1723 21.4752 24.0086 21.3189 23.8876L6.21163 12.2286C6.13356 12.1677 6.04035 12.1195 5.93771 12.0869C5.83507 12.0543 5.72501 12.0379 5.61402 12.0387C5.50409 12.038 5.39507 12.0545 5.29359 12.0871C5.19211 12.1198 5.10021 12.1679 5.02345 12.2286L3.19578 13.6446C3.11641 13.7035 3.05361 13.7743 3.01127 13.8527C2.96894 13.9311 2.94792 14.0154 2.94966 14.1003C2.94875 14.1852 2.97019 14.2693 3.01248 14.3476C3.05476 14.4259 3.11708 14.4968 3.19578 14.5561L18.303 26.215C18.3798 26.2757 18.4717 26.3239 18.5732 26.3565C18.6746 26.3891 18.7837 26.4056 18.8936 26.4049C19.0036 26.4062 19.1128 26.3901 19.2144 26.3574C19.316 26.3247 19.4077 26.2763 19.484 26.215L21.3189 24.799C21.3969 24.7394 21.4589 24.6684 21.5011 24.5902C21.5434 24.512 21.5649 24.428 21.5648 24.3433Z" fill="#FFDD03"/>
<path d="M34.2045 10.6499C34.2713 10.7024 34.3513 10.744 34.4395 10.772C34.5277 10.7999 34.6223 10.8138 34.7177 10.8126C34.8131 10.8138 34.9079 10.7999 34.9961 10.772C35.0843 10.744 35.1643 10.7024 35.231 10.6499L36.9463 9.32608C37.0144 9.27456 37.0683 9.21287 37.1045 9.14479C37.1408 9.0767 37.1587 9.00363 37.1572 8.93003C37.1587 8.85643 37.1408 8.78336 37.1045 8.71527C37.0683 8.64719 37.0144 8.58552 36.9463 8.534L26.1061 0.168193C26.0399 0.114633 25.9604 0.07208 25.8722 0.043157C25.7839 0.014234 25.6888 -0.000446398 25.5929 1.0339e-05C25.497 -0.000446398 25.4021 0.014234 25.3138 0.043157C25.2256 0.07208 25.1459 0.114633 25.0797 0.168193L23.3645 1.48653C23.2964 1.53805 23.2425 1.59974 23.2063 1.66783C23.17 1.73592 23.1521 1.80898 23.1536 1.88259C23.1521 1.95619 23.17 2.02926 23.2063 2.09734C23.2425 2.16543 23.2964 2.22712 23.3645 2.27864L34.2045 10.6499Z" fill="#FFDD03"/>
<path d="M34.8516 14.3608C35.0054 14.2388 35.091 14.0752 35.0905 13.905C35.0921 13.7331 35.0064 13.5675 34.8516 13.4439L19.7373 1.76324C19.66 1.703 19.568 1.6552 19.4666 1.6226C19.3653 1.59001 19.2565 1.57326 19.1467 1.57335C18.9252 1.57436 18.713 1.64256 18.5561 1.76324L16.9183 3.02732C16.8412 3.0872 16.7803 3.15836 16.7393 3.23661C16.6982 3.31486 16.6778 3.39865 16.6792 3.48306C16.6779 3.65335 16.7639 3.81715 16.9183 3.93878L32.0326 15.5977C32.1088 15.659 32.2006 15.7074 32.3022 15.7401C32.4038 15.7728 32.5129 15.7889 32.623 15.7876C32.7329 15.7883 32.8419 15.7718 32.9434 15.7392C33.0449 15.7066 33.1368 15.6585 33.2135 15.5977L34.8516 14.3608Z" fill="#FFDD03"/>
</svg>
